HIERARCHY
ROOT Hips
{
  OFFSET 196.326 95.9168 97.7182
  CHANNELS 6 Xposition Yposition Zposition Zrotation Xrotation Yrotation
  JOINT LeftUpLeg
  {
    OFFSET 8.64259 1.95398 -2.38835
    CHANNELS 3 Zrotation Xrotation Yrotation
    JOINT LeftLeg
    {
      OFFSET 43.7702 0 0
      CHANNELS 3 Zrotation Xrotation Yrotation
      JOINT LeftFoot
      {
        OFFSET 40.6238 0 0
        CHANNELS 3 Zrotation Xrotation Yrotation
        JOINT LeftToeBase
        {
          OFFSET 12.7242 0 0
          CHANNELS 3 Zrotation Xrotation Yrotation
          End Site
          {
            OFFSET 0 0 0
          }
        }
      }
    }
  }
  JOINT RightUpLeg
  {
    OFFSET -8.2249 1.95398 -2.59336
    CHANNELS 3 Zrotation Xrotation Yrotation
    JOINT RightLeg
    {
      OFFSET 43.5653 0 0
      CHANNELS 3 Zrotation Xrotation Yrotation
      JOINT RightFoot
      {
        OFFSET 40.6238 0 0
        CHANNELS 3 Zrotation Xrotation Yrotation
        JOINT RightToeBase
        {
          OFFSET 12.7242 0 0
          CHANNELS 3 Zrotation Xrotation Yrotation
          End Site
          {
            OFFSET 0 0 0
          }
        }
      }
    }
  }
  JOINT Spine
  {
    OFFSET 0.165834 0.87714 6.61349
    CHANNELS 3 Zrotation Xrotation Yrotation
    JOINT Spine1
    {
      OFFSET 7.38963 1.71661e-005 0
      CHANNELS 3 Zrotation Xrotation Yrotation
      JOINT Spine2
      {
        OFFSET 11.9445 1.14441e-005 0
        CHANNELS 3 Zrotation Xrotation Yrotation
        JOINT Spine3
        {
          OFFSET 14.7254 4.19617e-005 0
          CHANNELS 3 Zrotation Xrotation Yrotation
          JOINT Spine4
          {
            OFFSET 10.9679 0 0
            CHANNELS 3 Zrotation Xrotation Yrotation
            JOINT RightShoulder
            {
              OFFSET 2.46616 -1.6653 3.69651
              CHANNELS 3 Zrotation Xrotation Yrotation
              JOINT RightArm
              {
                OFFSET 13.0012 0 0
                CHANNELS 3 Zrotation Xrotation Yrotation
                JOINT RightForeArm
                {
                  OFFSET 28.7848 1.52588e-005 0
                  CHANNELS 3 Zrotation Xrotation Yrotation
                  JOINT RightHand
                  {
                    OFFSET 26.5688 1.52588e-005 0
                    CHANNELS 3 Zrotation Xrotation Yrotation
                    End Site
                    {
                      OFFSET 0 0 0
                    }
                  }
                }
              }
            }
            JOINT LeftShoulder
            {
              OFFSET 2.38034 -1.29275 -3.75231
              CHANNELS 3 Zrotation Xrotation Yrotation
              JOINT LeftArm
              {
                OFFSET 16.3182 6.10351e-005 0
                CHANNELS 3 Zrotation Xrotation Yrotation
                JOINT LeftForeArm
                {
                  OFFSET 27.0901 0 0
                  CHANNELS 3 Zrotation Xrotation Yrotation
                  JOINT LeftHand
                  {
                    OFFSET 24.5451 1.52588e-005 0
                    CHANNELS 3 Zrotation Xrotation Yrotation
                    End Site
                    {
                      OFFSET 0 0 0
                    }
                  }
                }
              }
            }
            JOINT Neck
            {
              OFFSET 5.0226 -0.0266342 0
              CHANNELS 3 Zrotation Xrotation Yrotation
              JOINT Head
              {
                OFFSET 6.69363 2.86102e-005 0
                CHANNELS 3 Zrotation Xrotation Yrotation
                End Site
                {
                  OFFSET 0 0 0
                }
              }
            }
          }
        }
      }
    }
  }
}
MOTION
Frames:	11
Frame Time:	0.0416667
-89.8463 90.2408 -91.984 61.2202 -54.3754 66.1556 -169.019 51.3174 88.7691 -29.5137 10.5544 -4.82157 58.4537 1.62385 11.4168 58.9291 34.8064 4.50592 177.121 2.22594 88.8814 -24.8183 -8.50862 -3.26863 65.4591 -2.66447 -1.43322 57.3206 6.05485 22.1842 1.47143 7.90205 -89.085 11.0504 3.35341 1.50044 -0.616911 3.41619 1.35127 -23.1704 2.7475 2.43927 -3.15774 2.74748 2.43927 86.9641 -38.6802 -109.125 26.8343 -7.233 -12.1871 -20.7672 5.22368 -97.0618 -19.9908 -1.23398 2.4769 -99.0745 -40.9707 61.8382 -47.775 10.754 33.9695 -2.94311 -2.22675 -50.8318 27.441 1.78756 2.67358 18.8255 0.331301 2.02148 2.36852 -0.205361 1.03904 
-83.7898 88.564 -86.2502 56.9477 -54.6947 62.3477 -162.788 54.7083 84.8417 -39.5325 11.0195 -6.93952 61.1392 4.6056 13.6438 58.7212 30.256 -5.56767 177.823 1.82492 87.7743 -27.4344 -8.69094 -5.10279 56.2976 -0.183736 0.0876155 61.1706 8.7885 29.1055 1.62065 7.89099 -88.7371 11.0547 3.81156 2.14638 -0.61217 3.90233 1.97639 -23.1634 2.99054 3.19285 -3.1507 2.99054 3.19283 87.1438 -38.4837 -108.883 27.8806 -4.91033 -9.85982 -21.7377 6.1362 -102.896 -22.5318 -1.51512 3.26854 -98.8711 -40.3187 61.8853 -47.8494 9.03408 35.6396 -2.26424 -2.62268 -53.4207 25.7272 1.8006 3.1766 19.5356 -0.608449 -0.113218 3.55453 -0.488213 0.721411 
-77.0258 87.496 -80.1703 53.4862 -53.1369 60.9282 -160.403 55.7846 82.4758 -49.0339 8.67864 -6.82208 68.1273 11.5002 15.3386 50.7216 19.2436 -18.8078 179.156 4.81478 87.8064 -31.9586 -6.43101 -4.86016 38.6749 3.33354 3.61433 50.6631 6.72326 34.15 1.52247 7.8103 -88.6127 11.2117 3.67519 2.40082 -0.456004 3.77726 2.23663 -22.9999 2.78411 3.39422 -2.98727 2.7841 3.39422 86.7977 -40.7223 -108.669 28.6131 -6.33762 -4.48461 -20.1454 6.30478 -103.595 -23.0631 -1.31019 1.89354 -99.1591 -40.9838 61.7098 -45.3398 7.70845 33.73 -2.02819 -3.36251 -54.1998 26.9068 1.74433 2.63902 20.9497 -0.807586 -1.32635 3.92233 -0.371076 -0.155897 
-70.6707 86.5814 -74.4045 53.6638 -51.3095 61.9371 -161.712 53.8204 81.3076 -54.7621 8.95887 -5.41301 69.5503 15.5923 19.612 54.0974 20.4456 -24.2928 -178.377 14.502 89.7904 -49.9334 3.19888 -5.76585 30.151 3.26817 4.33926 28.7125 -1.44836 18.0114 1.19095 7.97309 -88.531 10.8866 3.05022 2.63471 -0.783211 3.16316 2.49791 -23.3126 2.11787 3.42912 -3.29999 2.11787 3.42912 84.7698 -43.8246 -110.899 28.8172 -10.2082 3.36239 -17.4384 6.02546 -98.3806 -24.7908 -1.83576 3.8975 -100.727 -41.7219 59.562 -40.9233 4.42746 30.144 -0.977447 -4.20302 -56.7641 27.5021 1.91232 3.1312 21.3373 -0.431562 -1.72992 6.17676 0.0695763 -0.653743 
-64.6083 85.8796 -68.658 55.6347 -48.5465 62.509 -163.614 48.9107 79.2582 -56.8131 10.486 -4.56022 69.5066 18.5542 23.3918 59.5932 24.8991 -22.6778 -177.532 28.1015 90.4451 -71.8564 8.75204 -5.80764 34.0536 1.24509 1.98504 25.3137 -1.63078 14.9495 0.638433 8.24809 -88.3253 10.3393 2.03816 3.15068 -1.33366 2.17478 3.05801 -23.8423 0.99771 3.61697 -3.82959 0.997721 3.61697 82.9073 -46.4213 -112.881 31.2922 -13.4009 10.7913 -12.9983 0.0469327 -87.0486 -24.4873 -1.23342 0.945212 -102.468 -41.6874 56.8371 -35.2367 1.15479 24.5375 -0.901011 -5.21933 -61.396 28.8054 2.06362 3.33445 21.5598 -0.0144297 -2.79723 7.65306 0.876906 -0.153604 
-58.2313 85.9038 -62.9547 55.9149 -46.1274 62.225 -165.004 42.3023 78.5712 -54.1252 12.4595 -4.80683 67.4311 19.5948 26.7411 63.5206 29.7408 -17.5622 -177.087 43.3128 90.7767 -86.8163 9.7439 -5.85805 32.4724 1.28707 2.08948 27.6902 -1.28098 16.5358 0.185345 8.27807 -88.2709 10.2886 1.1596 3.33438 -1.38594 1.30514 3.28019 -23.887 0.104565 3.52851 -3.8743 0.104561 3.5285 81.4574 -48.5141 -114.299 34.5779 -15.8119 18.5808 -8.19835 -1.84563 -72.9752 -27.2492 -1.12466 -0.175384 -102.832 -41.9644 56.4053 -28.408 0.191024 16.0167 2.76285 -3.08401 -65.7507 29.858 2.41189 4.27596 22.1576 0.417561 -2.91198 7.19326 1.31262 -0.421948 
-51.0719 86.5755 -57.1896 59.3144 -44.0582 67.2696 -168.763 32.9596 81.9448 -49.4798 16.3378 -4.11324 66.4881 20.3671 28.3957 63.069 31.46 -12.3753 178.937 54.4365 95.1459 -93.4817 9.99461 -5.4615 34.4309 1.09172 1.78787 31.175 -0.469255 14.7433 -0.205835 8.31823 -88.6715 10.2303 0.196802 2.62118 -1.4433 0.311918 2.60998 -23.9578 -0.599837 2.55923 -3.94516 -0.599825 2.55924 79.3247 -50.3634 -116.742 38.0362 -16.5122 29.1534 -2.18702 -3.2481 -63.1343 -25.9648 -0.842524 -1.34579 -101.506 -40.7318 57.8867 -26.0138 -4.50398 10.6556 4.88027 -3.24823 -76.1656 31.3519 2.83477 5.27959 20.6399 1.07508 -3.95503 6.73785 2.34714 0.447135 
-42.9682 88.562 -50.9439 62.0495 -40.495 73.1468 -172.346 22.8528 86.2765 -41.6716 20.1316 -2.16524 64.4179 16.1072 24.1205 65.0421 33.4856 -11.6761 171.013 61.207 101.628 -91.0241 7.97504 -4.38743 40.6191 1.05803 1.4751 32.5825 -0.162054 12.5333 -0.808554 8.21561 -89.3543 10.4525 -1.31437 1.4034 -1.21862 -1.25134 1.45987 -23.7561 -1.6754 0.943485 -3.74348 -1.67538 0.943489 78.6114 -52.0392 -117.098 40.2006 -17.7858 39.2185 0.128618 -4.18904 -58.9905 -23.4272 -0.786835 -1.24254 -99.2915 -39.5159 60.8641 -27.257 -10.1032 9.01259 8.58734 0.0800981 -91.7243 30.409 3.19765 6.77525 19.886 2.538 -4.11643 4.79536 3.88914 1.55818 
-34.2378 90.9656 -43.7706 62.746 -41.5578 77.3403 -172.566 12.1866 91.2129 -30.8668 23.9101 -0.882393 54.8415 2.21866 12.947 78.6578 43.4643 -14.7249 167.96 62.6232 106.637 -80.0832 9.25223 -2.21371 42.5428 1.39352 1.74833 36.1735 0.496164 16.8325 -0.923075 8.05626 -89.9333 10.7652 -1.80731 0.299362 -0.904486 -1.7924 0.378633 -23.4499 -1.81369 -0.25783 -3.43725 -1.8137 -0.257835 77.0737 -53.2171 -118.807 41.4075 -16.5911 48.0749 1.02068 -4.01022 -58.0552 -21.5771 -0.790499 -0.901141 -97.6223 -39.2689 63.4609 -27.2443 -11.0711 8.62987 9.84796 -3.43758 -104.327 31.3173 3.46027 7.32173 16.9188 4.37541 -4.63611 4.31303 5.93611 3.79083 
-25.9401 93.2013 -36.1514 65.5106 -40.1252 79 -173.64 -0.657613 93.5045 -15.5018 29.7461 0.44821 35.9978 -12.4177 0.602517 63.7432 33.4678 -9.09056 170.74 60.4208 102.684 -66.0438 6.37659 0.440419 48.2387 1.56413 1.63962 28.6517 -0.871527 13.3808 -1.31292 7.99039 -90.1219 10.8957 -2.67031 0.00900788 -0.772563 -2.66731 0.1266 -23.3283 -2.54949 -0.794482 -3.31569 -2.54948 -0.794487 77.4858 -52.6057 -118.477 42.1693 -13.1898 53.6289 0.574221 -2.92996 -58.3973 -18.6417 -0.636882 -1.22517 -97.7315 -38.7529 63.0658 -27.3852 -10.5019 10.3381 11.6352 -5.22654 -115.205 30.7047 2.97566 5.93007 13.4957 5.41606 -5.03218 3.84637 7.13764 6.18994 
-17.6003 94.3271 -28.1996 63.8242 -41.0859 76.3828 -175.449 -1.99624 91.4316 -20.2301 27.2559 1.11877 32.5698 -14.256 0.321925 28.5871 0.606957 -6.82823 177.725 58.0051 97.7913 -48.4862 1.71671 1.30638 50.6808 1.97822 1.87164 33.486 0.0213038 14.2581 -1.38868 7.73078 -90.0455 11.4183 -2.78428 0.189864 -0.249733 -2.77323 0.312311 -22.808 -2.71254 -0.656349 -2.79539 -2.71251 -0.656336 78.0857 -52.1479 -117.808 41.3685 -10.9657 54.821 -0.402158 -2.21046 -59.8758 -18.0186 -0.432704 -2.42324 -97.0441 -37.9509 63.8628 -28.4939 -7.79252 12.0558 13.3246 -8.15098 -121.865 29.1914 2.82248 5.90882 11.7807 5.82599 -6.03383 4.27812 7.83486 7.17809 
